# xmcd
#
# Track frame offsets:
#	150
#	17623
#	33102
#	63814
#	80407
#	93318
#	111394
#	126395
#	142810
#	158338
#	177606
#	194947
#	208627
#	231745
#	245514
#	260917
#
# Disc length: 3693 seconds
#
# Revision: 1
# Processed by: cddbd v1.5.2PL0 Copyright (c) Steve Scherf et al.
# Submitted via: EZCDAudioConverter 5.0.4.2
#
DISCID=e60e6b10
DTITLE=Belcanto Guido - Ejssential
DYEAR=2011
DGENRE=Nederlandstalig luisterlied
TTITLE0=Op Het Zeildoek Van De Botsauto's\n
TTITLE1=Je Betekent Niets Als Niemand Om Je Geeft\n
TTITLE2=Rome Bij Nacmht
TTITLE3=Kom Mee Naar Boven\n
TTITLE4=Ik Geloof
TTITLE5=Ik Slaap Wel Op De Vloer 
TTITLE6=Het Feestje
TTITLE7=Mijn Vriend
TTITLE8=Evelyn
TTITLE9=Mijn Meisje Heeft Me Bedrogen
TTITLE10=Noche De La Pasion
TTITLE11=Doe Alsof Je Alleen Bent
TTITLE12=Een Zanger Moet Trachten De Pijn Te Verzachten
TTITLE13=Mr. William
TTITLE14=Plastic Rozen Verwelken Niet
TTITLE15=De Vrouw Van De Bakker
EXTD=
EXTT0=
EXTT1=
EXTT2=
EXTT3=
EXTT4=
EXTT5=
EXTT6=
EXTT7=
EXTT8=
EXTT9=
EXTT10=
EXTT11=
EXTT12=
EXTT13=
EXTT14=
EXTT15=
PLAYORDER=
